<?xml version="1.0" encoding="UTF-8"?>
<svg xmlns="http://www.w3.org/2000/svg" width="64" height="64" viewBox="0 0 36 36" fill="none">
<path d="M16.3245 33.5686L14.8576 35.0001L10.1483 27.6879L13.9312 23.8191L16.3245 33.5686Z" fill="black"/>
<path d="M32.035 25.444L30.5295 26.9528L31.5718 31.9437L30.0663 33.4525L23.1954 20.9561L20.8794 18.6348L27.4029 12.0964L28.1749 15.6945C28.5223 15.4236 29.0241 15.4623 29.3329 15.7718L30.5295 16.9712C30.8769 17.3194 30.8769 17.861 30.5295 18.2092L29.0241 19.7568L29.6803 22.8905C30.0277 22.6584 30.4909 22.6584 30.7997 22.9679L31.9964 24.1673C32.3824 24.5541 32.3824 25.1345 32.035 25.444Z" fill="black"/>
<path d="M2.42823 19.6409L1 21.0723L8.25693 25.831L12.1556 22.0009L2.42823 19.6409Z" fill="#A0BFF8"/>
<path d="M10.0325 9.27216L8.99033 5.4033L10.4958 3.89445C10.8432 3.54625 11.3836 3.54625 11.731 3.89445L12.9276 5.09379C13.275 5.44199 13.275 5.98363 12.9276 6.33183L10.0325 9.27216Z" fill="#276EF1"/>
<path d="M17.2123 10.7423L16.1701 6.91209L17.6755 5.40324C18.0229 5.05504 18.5633 5.05504 18.9107 5.40324L20.1073 6.60258C20.4548 6.95078 20.4548 7.49242 20.1073 7.84062L17.2123 10.7423Z" fill="#276EF1"/>
<path d="M4.04943 4.35889L2.5054 5.86774L14.9734 12.7156L17.2895 15.0369L23.813 8.49856L4.04943 4.35889Z" fill="#A0BFF8"/>
<path d="M15.7841 24.0898C14.1628 25.7147 12.2714 27.1075 10.2642 28.2295L7.71651 29.6223L6.40408 28.3069L7.75511 25.7921C8.87453 23.7416 10.2642 21.8459 11.924 20.221L27.7117 4.39736C29.2557 2.84982 31.1085 1.72785 33.193 1.07015C34.2738 0.72195 35.2774 1.72785 34.93 2.81113C34.2738 4.86162 33.1158 6.75736 31.6103 8.3049L15.7841 24.0898Z" fill="#276EF1"/>
</svg>
