<?xml version="1.0" encoding="UTF-8"?>
<svg xmlns="http://www.w3.org/2000/svg" width="64" height="64" viewBox="0 0 36 36" fill="none">
<path d="M9.55077 31.0282V33.13C9.55077 34.1655 10.3954 35 11.4346 35H28.8177C29.8609 35 30.7016 34.1616 30.7016 33.13V31.0282H9.55077Z" fill="black"/>
<path d="M30.7055 4.97182V2.87C30.7055 1.83455 29.8609 1 28.8216 1H11.4385C10.3954 1 9.55077 1.83841 9.55077 2.87V4.97182H30.7055Z" fill="black"/>
<path d="M30.7055 4.9718H9.55077V31.0282H30.7055V4.9718Z" fill="#276EF1"/>
<path d="M20.1301 34.1036C20.6761 34.1036 21.1187 33.6642 21.1187 33.1222C21.1187 32.5802 20.6761 32.1409 20.1301 32.1409C19.584 32.1409 19.1414 32.5802 19.1414 33.1222C19.1414 33.6642 19.584 34.1036 20.1301 34.1036Z" fill="white"/>
<path d="M32.3286 13.692C31.4333 14.5806 29.9776 14.5806 29.0824 13.692C28.1872 12.8033 28.1872 11.3583 29.0824 10.4697C29.9776 9.58106 31.4333 9.58106 32.3286 10.4697C33.2238 11.3583 33.2238 12.8033 32.3286 13.692Z" fill="#A0BFF8"/>
<path d="M32.3286 18.2511C31.4333 19.1397 29.9776 19.1397 29.0824 18.2511C28.1872 17.3624 28.1872 15.9174 29.0824 15.0288C29.9776 14.1401 31.4333 14.1401 32.3286 15.0288C33.2238 15.9174 33.2238 17.3624 32.3286 18.2511Z" fill="#A0BFF8"/>
<path d="M32.3286 22.8101C31.4333 23.6988 29.9776 23.6988 29.0824 22.8101C28.1872 21.9215 28.1872 20.4765 29.0824 19.5879C29.9776 18.6992 31.4333 18.6992 32.3286 19.5879C33.2238 20.4765 33.2238 21.9215 32.3286 22.8101Z" fill="#A0BFF8"/>
<path d="M32.3286 27.3692C31.4333 28.2579 29.9776 28.2579 29.0824 27.3692C28.1872 26.4806 28.1872 25.0356 29.0824 24.1469C29.9776 23.2583 31.4333 23.2583 32.3286 24.1469C33.2238 25.0356 33.2238 26.4806 32.3286 27.3692Z" fill="#A0BFF8"/>
<path d="M13.7895 28.9302V34.9999H3V20.6813C3 19.0238 3.52935 17.4127 4.51411 16.0759L9.29387 9.58495C9.58969 9.18313 10.1657 9.10199 10.5628 9.41109C12.038 10.5547 12.4583 12.5909 11.5631 14.2213L10.0879 16.8988V23.0575L10.2436 23.1386C11.3334 23.6988 12.2209 24.5411 12.8359 25.5418C13.4509 26.5424 13.7895 27.7093 13.7895 28.9302Z" fill="#A0BFF8"/>
<path d="M18.6393 12.2045C18.6393 11.3738 19.3127 10.7479 20.1495 10.7479C20.9864 10.7479 21.6169 11.3738 21.6169 12.2045C21.6169 13.0352 20.9864 13.6804 20.1495 13.6804C19.3127 13.6804 18.6393 13.0313 18.6393 12.2045ZM21.4729 25.252H18.8028V15.8132H21.4729V25.252Z" fill="white"/>
</svg>
