<?xml version="1.0" encoding="UTF-8"?>
<svg xmlns="http://www.w3.org/2000/svg" width="64" height="64" viewBox="0 0 36 36" fill="none">
<path d="M32.7859 25.2962H3.21799V7.72287C3.21799 6.76928 3.96375 6 4.87954 6H31.1243C32.044 6 32.7859 6.77329 32.7859 7.72287V25.2962Z" fill="#A0BFF8"/>
<path d="M1 27.0752V28.4295C1 29.2989 1.68008 30.0001 2.51472 30.0001H33.4853C34.3238 30.0001 35 29.2949 35 28.4295V27.0752H1Z" fill="black"/>
<path d="M32.7859 8.63639H3.21799V7.72287C3.21799 6.76928 3.96375 6 4.87954 6H31.1243C32.044 6 32.7859 6.77329 32.7859 7.72287V8.63639Z" fill="#276EF1"/>
<path d="M32.7898 25.2961H3.21799V27.0751H32.7898V25.2961Z" fill="#276EF1"/>
<path d="M20.7416 28.3493H15.2623C14.5861 28.3493 14.0335 27.7804 14.0335 27.0752H21.9665C21.9665 27.7804 21.4178 28.3493 20.7416 28.3493Z" fill="white"/>
<path d="M29.6367 8.51208H5.76826V22.6517H29.6367V8.51208Z" fill="white"/>
</svg>
